# xmcd CD database file
#
# Track frame offsets:
#	150
#	22415
#	45975
#	60987
#	83145
#	104682
#	121022
#	135285
#	150302
#	171897
#	192042
#	208777
#	235492
#
# Disc length: 3357 seconds
#
# Revision: 0
# Processed by: cddbd v1.5.2PL0 Copyright (c) Steve Scherf et al.
# Submitted via: CDex 1.70beta2
#
DISCID=a30d1b0d
DTITLE=Jazzin' park - Jazzin' park
DYEAR=2006
DGENRE=Jazz
TTITLE0=Long Time Ago
TTITLE1=Through The Motion
TTITLE2=The Questioned Life
TTITLE3=風ノ生レル処
TTITLE4=On The Floor
TTITLE5=Dive Into･･･
TTITLE6=Guitar Techno
TTITLE7=Vega
TTITLE8=Bohemian Sunset
TTITLE9=Bloom
TTITLE10=Stay
TTITLE11=Spice Of Your Life
TTITLE12=Good Night
EXTD=YEAR: 2006
EXTT0=
EXTT1=
EXTT2=
EXTT3=
EXTT4=
EXTT5=
EXTT6=
EXTT7=
EXTT8=
EXTT9=
EXTT10=
EXTT11=
EXTT12=
PLAYORDER=
